<mxfile host="app.diagrams.net" modified="2022-04-06T02:16:39.941Z" agent="5.0 (Macintosh)" etag="XMuiWZNctrW_rwOk2DbQ" version="17.4.0" type="github">
  <diagram id="_0vtp9OptJLSK87kWKsh" name="Page-1">
    <mxGraphModel dx="1006" dy="820" grid="1" gridSize="10" guides="1" tooltips="1" connect="1" arrows="1" fold="1" page="1" pageScale="1" pageWidth="850" pageHeight="1100" math="0" shadow="0">
      <root>
        <mxCell id="0" />
        <mxCell id="1" parent="0" />
        <mxCell id="mfxGFPHrFce8fcPG04jD-1" value="Badge" style="swimlane;fontStyle=0;childLayout=stackLayout;horizontal=1;startSize=30;horizontalStack=0;resizeParent=1;resizeParentMax=0;resizeLast=0;collapsible=1;marginBottom=0;" vertex="1" parent="1">
          <mxGeometry x="50" y="80" width="130" height="120" as="geometry" />
        </mxCell>
        <mxCell id="mfxGFPHrFce8fcPG04jD-2" value="name" style="text;strokeColor=none;fillColor=none;align=left;verticalAlign=middle;spacingLeft=4;spacingRight=4;overflow=hidden;points=[[0,0.5],[1,0.5]];portConstraint=eastwest;rotatable=0;" vertex="1" parent="mfxGFPHrFce8fcPG04jD-1">
          <mxGeometry y="30" width="130" height="30" as="geometry" />
        </mxCell>
        <mxCell id="mfxGFPHrFce8fcPG04jD-3" value="filename" style="text;strokeColor=none;fillColor=none;align=left;verticalAlign=middle;spacingLeft=4;spacingRight=4;overflow=hidden;points=[[0,0.5],[1,0.5]];portConstraint=eastwest;rotatable=0;" vertex="1" parent="mfxGFPHrFce8fcPG04jD-1">
          <mxGeometry y="60" width="130" height="30" as="geometry" />
        </mxCell>
        <mxCell id="mfxGFPHrFce8fcPG04jD-4" value="criteria" style="text;strokeColor=none;fillColor=none;align=left;verticalAlign=middle;spacingLeft=4;spacingRight=4;overflow=hidden;points=[[0,0.5],[1,0.5]];portConstraint=eastwest;rotatable=0;" vertex="1" parent="mfxGFPHrFce8fcPG04jD-1">
          <mxGeometry y="90" width="130" height="30" as="geometry" />
        </mxCell>
      </root>
    </mxGraphModel>
  </diagram>
</mxfile>
